%TF.GenerationSoftware,KiCad,Pcbnew,8.0.9-8.0.9-0~ubuntu24.04.1*%
%TF.CreationDate,2026-03-09T23:08:06+05:30*%
%TF.ProjectId,jarviz_pcb,6a617276-697a-45f7-9063-622e6b696361,rev?*%
%TF.SameCoordinates,Original*%
%TF.FileFunction,Legend,Top*%
%TF.FilePolarity,Positive*%
%FSLAX46Y46*%
G04 Gerber Fmt 4.6, Leading zero omitted, Abs format (unit mm)*
G04 Created by KiCad (PCBNEW 8.0.9-8.0.9-0~ubuntu24.04.1) date 2026-03-09 23:08:06*
%MOMM*%
%LPD*%
G01*
G04 APERTURE LIST*
%ADD10C,0.150000*%
%ADD11C,0.120000*%
G04 APERTURE END LIST*
D10*
X152873333Y-85324819D02*
X152540000Y-84848628D01*
X152301905Y-85324819D02*
X152301905Y-84324819D01*
X152301905Y-84324819D02*
X152682857Y-84324819D01*
X152682857Y-84324819D02*
X152778095Y-84372438D01*
X152778095Y-84372438D02*
X152825714Y-84420057D01*
X152825714Y-84420057D02*
X152873333Y-84515295D01*
X152873333Y-84515295D02*
X152873333Y-84658152D01*
X152873333Y-84658152D02*
X152825714Y-84753390D01*
X152825714Y-84753390D02*
X152778095Y-84801009D01*
X152778095Y-84801009D02*
X152682857Y-84848628D01*
X152682857Y-84848628D02*
X152301905Y-84848628D01*
X153206667Y-84324819D02*
X153825714Y-84324819D01*
X153825714Y-84324819D02*
X153492381Y-84705771D01*
X153492381Y-84705771D02*
X153635238Y-84705771D01*
X153635238Y-84705771D02*
X153730476Y-84753390D01*
X153730476Y-84753390D02*
X153778095Y-84801009D01*
X153778095Y-84801009D02*
X153825714Y-84896247D01*
X153825714Y-84896247D02*
X153825714Y-85134342D01*
X153825714Y-85134342D02*
X153778095Y-85229580D01*
X153778095Y-85229580D02*
X153730476Y-85277200D01*
X153730476Y-85277200D02*
X153635238Y-85324819D01*
X153635238Y-85324819D02*
X153349524Y-85324819D01*
X153349524Y-85324819D02*
X153254286Y-85277200D01*
X153254286Y-85277200D02*
X153206667Y-85229580D01*
X142023333Y-86324819D02*
X141690000Y-85848628D01*
X141451905Y-86324819D02*
X141451905Y-85324819D01*
X141451905Y-85324819D02*
X141832857Y-85324819D01*
X141832857Y-85324819D02*
X141928095Y-85372438D01*
X141928095Y-85372438D02*
X141975714Y-85420057D01*
X141975714Y-85420057D02*
X142023333Y-85515295D01*
X142023333Y-85515295D02*
X142023333Y-85658152D01*
X142023333Y-85658152D02*
X141975714Y-85753390D01*
X141975714Y-85753390D02*
X141928095Y-85801009D01*
X141928095Y-85801009D02*
X141832857Y-85848628D01*
X141832857Y-85848628D02*
X141451905Y-85848628D01*
X142404286Y-85420057D02*
X142451905Y-85372438D01*
X142451905Y-85372438D02*
X142547143Y-85324819D01*
X142547143Y-85324819D02*
X142785238Y-85324819D01*
X142785238Y-85324819D02*
X142880476Y-85372438D01*
X142880476Y-85372438D02*
X142928095Y-85420057D01*
X142928095Y-85420057D02*
X142975714Y-85515295D01*
X142975714Y-85515295D02*
X142975714Y-85610533D01*
X142975714Y-85610533D02*
X142928095Y-85753390D01*
X142928095Y-85753390D02*
X142356667Y-86324819D01*
X142356667Y-86324819D02*
X142975714Y-86324819D01*
X142333333Y-95824819D02*
X142000000Y-95348628D01*
X141761905Y-95824819D02*
X141761905Y-94824819D01*
X141761905Y-94824819D02*
X142142857Y-94824819D01*
X142142857Y-94824819D02*
X142238095Y-94872438D01*
X142238095Y-94872438D02*
X142285714Y-94920057D01*
X142285714Y-94920057D02*
X142333333Y-95015295D01*
X142333333Y-95015295D02*
X142333333Y-95158152D01*
X142333333Y-95158152D02*
X142285714Y-95253390D01*
X142285714Y-95253390D02*
X142238095Y-95301009D01*
X142238095Y-95301009D02*
X142142857Y-95348628D01*
X142142857Y-95348628D02*
X141761905Y-95348628D01*
X143285714Y-95824819D02*
X142714286Y-95824819D01*
X143000000Y-95824819D02*
X143000000Y-94824819D01*
X143000000Y-94824819D02*
X142904762Y-94967676D01*
X142904762Y-94967676D02*
X142809524Y-95062914D01*
X142809524Y-95062914D02*
X142714286Y-95110533D01*
X131904761Y-91350057D02*
X131809523Y-91302438D01*
X131809523Y-91302438D02*
X131714285Y-91207200D01*
X131714285Y-91207200D02*
X131571428Y-91064342D01*
X131571428Y-91064342D02*
X131476190Y-91016723D01*
X131476190Y-91016723D02*
X131380952Y-91016723D01*
X131428571Y-91254819D02*
X131333333Y-91207200D01*
X131333333Y-91207200D02*
X131238095Y-91111961D01*
X131238095Y-91111961D02*
X131190476Y-90921485D01*
X131190476Y-90921485D02*
X131190476Y-90588152D01*
X131190476Y-90588152D02*
X131238095Y-90397676D01*
X131238095Y-90397676D02*
X131333333Y-90302438D01*
X131333333Y-90302438D02*
X131428571Y-90254819D01*
X131428571Y-90254819D02*
X131619047Y-90254819D01*
X131619047Y-90254819D02*
X131714285Y-90302438D01*
X131714285Y-90302438D02*
X131809523Y-90397676D01*
X131809523Y-90397676D02*
X131857142Y-90588152D01*
X131857142Y-90588152D02*
X131857142Y-90921485D01*
X131857142Y-90921485D02*
X131809523Y-91111961D01*
X131809523Y-91111961D02*
X131714285Y-91207200D01*
X131714285Y-91207200D02*
X131619047Y-91254819D01*
X131619047Y-91254819D02*
X131428571Y-91254819D01*
X132238095Y-90350057D02*
X132285714Y-90302438D01*
X132285714Y-90302438D02*
X132380952Y-90254819D01*
X132380952Y-90254819D02*
X132619047Y-90254819D01*
X132619047Y-90254819D02*
X132714285Y-90302438D01*
X132714285Y-90302438D02*
X132761904Y-90350057D01*
X132761904Y-90350057D02*
X132809523Y-90445295D01*
X132809523Y-90445295D02*
X132809523Y-90540533D01*
X132809523Y-90540533D02*
X132761904Y-90683390D01*
X132761904Y-90683390D02*
X132190476Y-91254819D01*
X132190476Y-91254819D02*
X132809523Y-91254819D01*
X132134761Y-80490057D02*
X132039523Y-80442438D01*
X132039523Y-80442438D02*
X131944285Y-80347200D01*
X131944285Y-80347200D02*
X131801428Y-80204342D01*
X131801428Y-80204342D02*
X131706190Y-80156723D01*
X131706190Y-80156723D02*
X131610952Y-80156723D01*
X131658571Y-80394819D02*
X131563333Y-80347200D01*
X131563333Y-80347200D02*
X131468095Y-80251961D01*
X131468095Y-80251961D02*
X131420476Y-80061485D01*
X131420476Y-80061485D02*
X131420476Y-79728152D01*
X131420476Y-79728152D02*
X131468095Y-79537676D01*
X131468095Y-79537676D02*
X131563333Y-79442438D01*
X131563333Y-79442438D02*
X131658571Y-79394819D01*
X131658571Y-79394819D02*
X131849047Y-79394819D01*
X131849047Y-79394819D02*
X131944285Y-79442438D01*
X131944285Y-79442438D02*
X132039523Y-79537676D01*
X132039523Y-79537676D02*
X132087142Y-79728152D01*
X132087142Y-79728152D02*
X132087142Y-80061485D01*
X132087142Y-80061485D02*
X132039523Y-80251961D01*
X132039523Y-80251961D02*
X131944285Y-80347200D01*
X131944285Y-80347200D02*
X131849047Y-80394819D01*
X131849047Y-80394819D02*
X131658571Y-80394819D01*
X133039523Y-80394819D02*
X132468095Y-80394819D01*
X132753809Y-80394819D02*
X132753809Y-79394819D01*
X132753809Y-79394819D02*
X132658571Y-79537676D01*
X132658571Y-79537676D02*
X132563333Y-79632914D01*
X132563333Y-79632914D02*
X132468095Y-79680533D01*
X155107142Y-103574819D02*
X154630952Y-103574819D01*
X154630952Y-103574819D02*
X154630952Y-102574819D01*
X155392857Y-103527200D02*
X155535714Y-103574819D01*
X155535714Y-103574819D02*
X155773809Y-103574819D01*
X155773809Y-103574819D02*
X155869047Y-103527200D01*
X155869047Y-103527200D02*
X155916666Y-103479580D01*
X155916666Y-103479580D02*
X155964285Y-103384342D01*
X155964285Y-103384342D02*
X155964285Y-103289104D01*
X155964285Y-103289104D02*
X155916666Y-103193866D01*
X155916666Y-103193866D02*
X155869047Y-103146247D01*
X155869047Y-103146247D02*
X155773809Y-103098628D01*
X155773809Y-103098628D02*
X155583333Y-103051009D01*
X155583333Y-103051009D02*
X155488095Y-103003390D01*
X155488095Y-103003390D02*
X155440476Y-102955771D01*
X155440476Y-102955771D02*
X155392857Y-102860533D01*
X155392857Y-102860533D02*
X155392857Y-102765295D01*
X155392857Y-102765295D02*
X155440476Y-102670057D01*
X155440476Y-102670057D02*
X155488095Y-102622438D01*
X155488095Y-102622438D02*
X155583333Y-102574819D01*
X155583333Y-102574819D02*
X155821428Y-102574819D01*
X155821428Y-102574819D02*
X155964285Y-102622438D01*
X156916666Y-103574819D02*
X156345238Y-103574819D01*
X156630952Y-103574819D02*
X156630952Y-102574819D01*
X156630952Y-102574819D02*
X156535714Y-102717676D01*
X156535714Y-102717676D02*
X156440476Y-102812914D01*
X156440476Y-102812914D02*
X156345238Y-102860533D01*
X146166666Y-73394819D02*
X146166666Y-74109104D01*
X146166666Y-74109104D02*
X146119047Y-74251961D01*
X146119047Y-74251961D02*
X146023809Y-74347200D01*
X146023809Y-74347200D02*
X145880952Y-74394819D01*
X145880952Y-74394819D02*
X145785714Y-74394819D01*
X146595238Y-73490057D02*
X146642857Y-73442438D01*
X146642857Y-73442438D02*
X146738095Y-73394819D01*
X146738095Y-73394819D02*
X146976190Y-73394819D01*
X146976190Y-73394819D02*
X147071428Y-73442438D01*
X147071428Y-73442438D02*
X147119047Y-73490057D01*
X147119047Y-73490057D02*
X147166666Y-73585295D01*
X147166666Y-73585295D02*
X147166666Y-73680533D01*
X147166666Y-73680533D02*
X147119047Y-73823390D01*
X147119047Y-73823390D02*
X146547619Y-74394819D01*
X146547619Y-74394819D02*
X147166666Y-74394819D01*
X168261904Y-92942438D02*
X168166666Y-92894819D01*
X168166666Y-92894819D02*
X168023809Y-92894819D01*
X168023809Y-92894819D02*
X167880952Y-92942438D01*
X167880952Y-92942438D02*
X167785714Y-93037676D01*
X167785714Y-93037676D02*
X167738095Y-93132914D01*
X167738095Y-93132914D02*
X167690476Y-93323390D01*
X167690476Y-93323390D02*
X167690476Y-93466247D01*
X167690476Y-93466247D02*
X167738095Y-93656723D01*
X167738095Y-93656723D02*
X167785714Y-93751961D01*
X167785714Y-93751961D02*
X167880952Y-93847200D01*
X167880952Y-93847200D02*
X168023809Y-93894819D01*
X168023809Y-93894819D02*
X168119047Y-93894819D01*
X168119047Y-93894819D02*
X168261904Y-93847200D01*
X168261904Y-93847200D02*
X168309523Y-93799580D01*
X168309523Y-93799580D02*
X168309523Y-93466247D01*
X168309523Y-93466247D02*
X168119047Y-93466247D01*
X168738095Y-93894819D02*
X168738095Y-92894819D01*
X168738095Y-92894819D02*
X169309523Y-93894819D01*
X169309523Y-93894819D02*
X169309523Y-92894819D01*
X169785714Y-93894819D02*
X169785714Y-92894819D01*
X169785714Y-92894819D02*
X170023809Y-92894819D01*
X170023809Y-92894819D02*
X170166666Y-92942438D01*
X170166666Y-92942438D02*
X170261904Y-93037676D01*
X170261904Y-93037676D02*
X170309523Y-93132914D01*
X170309523Y-93132914D02*
X170357142Y-93323390D01*
X170357142Y-93323390D02*
X170357142Y-93466247D01*
X170357142Y-93466247D02*
X170309523Y-93656723D01*
X170309523Y-93656723D02*
X170261904Y-93751961D01*
X170261904Y-93751961D02*
X170166666Y-93847200D01*
X170166666Y-93847200D02*
X170023809Y-93894819D01*
X170023809Y-93894819D02*
X169785714Y-93894819D01*
X171309523Y-93894819D02*
X170738095Y-93894819D01*
X171023809Y-93894819D02*
X171023809Y-92894819D01*
X171023809Y-92894819D02*
X170928571Y-93037676D01*
X170928571Y-93037676D02*
X170833333Y-93132914D01*
X170833333Y-93132914D02*
X170738095Y-93180533D01*
X153761905Y-92574819D02*
X153761905Y-91574819D01*
X153761905Y-91574819D02*
X154000000Y-91574819D01*
X154000000Y-91574819D02*
X154142857Y-91622438D01*
X154142857Y-91622438D02*
X154238095Y-91717676D01*
X154238095Y-91717676D02*
X154285714Y-91812914D01*
X154285714Y-91812914D02*
X154333333Y-92003390D01*
X154333333Y-92003390D02*
X154333333Y-92146247D01*
X154333333Y-92146247D02*
X154285714Y-92336723D01*
X154285714Y-92336723D02*
X154238095Y-92431961D01*
X154238095Y-92431961D02*
X154142857Y-92527200D01*
X154142857Y-92527200D02*
X154000000Y-92574819D01*
X154000000Y-92574819D02*
X153761905Y-92574819D01*
X155285714Y-92574819D02*
X154714286Y-92574819D01*
X155000000Y-92574819D02*
X155000000Y-91574819D01*
X155000000Y-91574819D02*
X154904762Y-91717676D01*
X154904762Y-91717676D02*
X154809524Y-91812914D01*
X154809524Y-91812914D02*
X154714286Y-91860533D01*
X158048095Y-92254819D02*
X158048095Y-91254819D01*
X158619523Y-92254819D02*
X158190952Y-91683390D01*
X158619523Y-91254819D02*
X158048095Y-91826247D01*
X161583333Y-78959580D02*
X161535714Y-79007200D01*
X161535714Y-79007200D02*
X161392857Y-79054819D01*
X161392857Y-79054819D02*
X161297619Y-79054819D01*
X161297619Y-79054819D02*
X161154762Y-79007200D01*
X161154762Y-79007200D02*
X161059524Y-78911961D01*
X161059524Y-78911961D02*
X161011905Y-78816723D01*
X161011905Y-78816723D02*
X160964286Y-78626247D01*
X160964286Y-78626247D02*
X160964286Y-78483390D01*
X160964286Y-78483390D02*
X161011905Y-78292914D01*
X161011905Y-78292914D02*
X161059524Y-78197676D01*
X161059524Y-78197676D02*
X161154762Y-78102438D01*
X161154762Y-78102438D02*
X161297619Y-78054819D01*
X161297619Y-78054819D02*
X161392857Y-78054819D01*
X161392857Y-78054819D02*
X161535714Y-78102438D01*
X161535714Y-78102438D02*
X161583333Y-78150057D01*
X162535714Y-79054819D02*
X161964286Y-79054819D01*
X162250000Y-79054819D02*
X162250000Y-78054819D01*
X162250000Y-78054819D02*
X162154762Y-78197676D01*
X162154762Y-78197676D02*
X162059524Y-78292914D01*
X162059524Y-78292914D02*
X161964286Y-78340533D01*
X168833333Y-80894819D02*
X168357143Y-80894819D01*
X168357143Y-80894819D02*
X168309524Y-81371009D01*
X168309524Y-81371009D02*
X168357143Y-81323390D01*
X168357143Y-81323390D02*
X168452381Y-81275771D01*
X168452381Y-81275771D02*
X168690476Y-81275771D01*
X168690476Y-81275771D02*
X168785714Y-81323390D01*
X168785714Y-81323390D02*
X168833333Y-81371009D01*
X168833333Y-81371009D02*
X168880952Y-81466247D01*
X168880952Y-81466247D02*
X168880952Y-81704342D01*
X168880952Y-81704342D02*
X168833333Y-81799580D01*
X168833333Y-81799580D02*
X168785714Y-81847200D01*
X168785714Y-81847200D02*
X168690476Y-81894819D01*
X168690476Y-81894819D02*
X168452381Y-81894819D01*
X168452381Y-81894819D02*
X168357143Y-81847200D01*
X168357143Y-81847200D02*
X168309524Y-81799580D01*
X169166667Y-80894819D02*
X169500000Y-81894819D01*
X169500000Y-81894819D02*
X169833333Y-80894819D01*
X170690476Y-81894819D02*
X170119048Y-81894819D01*
X170404762Y-81894819D02*
X170404762Y-80894819D01*
X170404762Y-80894819D02*
X170309524Y-81037676D01*
X170309524Y-81037676D02*
X170214286Y-81132914D01*
X170214286Y-81132914D02*
X170119048Y-81180533D01*
D11*
%TO.C,R3*%
X156950000Y-82500000D02*
G75*
G02*
X154210000Y-82500000I-1370000J0D01*
G01*
X154210000Y-82500000D02*
G75*
G02*
X156950000Y-82500000I1370000J0D01*
G01*
X154210000Y-82500000D02*
X151600000Y-82500000D01*
%TO.C,R2*%
X145460000Y-84870000D02*
X138920000Y-84870000D01*
X145460000Y-84540000D02*
X145460000Y-84870000D01*
X145460000Y-82460000D02*
X145460000Y-82130000D01*
X145460000Y-82130000D02*
X138920000Y-82130000D01*
X138920000Y-84870000D02*
X138920000Y-84540000D01*
X138920000Y-82130000D02*
X138920000Y-82460000D01*
%TO.C,R1*%
X145770000Y-94370000D02*
X139230000Y-94370000D01*
X145770000Y-94040000D02*
X145770000Y-94370000D01*
X145770000Y-91960000D02*
X145770000Y-91630000D01*
X145770000Y-91630000D02*
X139230000Y-91630000D01*
X139230000Y-94370000D02*
X139230000Y-94040000D01*
X139230000Y-91630000D02*
X139230000Y-91960000D01*
%TO.C,Q2*%
X130200000Y-96210000D02*
X133800000Y-96210000D01*
X130161522Y-96198478D02*
G75*
G02*
X132000000Y-91759999I1838478J1838478D01*
G01*
X132000000Y-91760000D02*
G75*
G02*
X133838478Y-96198478I0J-2600000D01*
G01*
%TO.C,Q1*%
X130430000Y-85350000D02*
X134030000Y-85350000D01*
X130391522Y-85338478D02*
G75*
G02*
X132230000Y-80899999I1838478J1838478D01*
G01*
X132230000Y-80900000D02*
G75*
G02*
X134068478Y-85338478I0J-2600000D01*
G01*
%TO.C,LS1*%
X161120000Y-102120000D02*
X161120000Y-94080000D01*
X161120000Y-102120000D02*
X150380000Y-102120000D01*
X161120000Y-98500000D02*
X159880000Y-98500000D01*
X161120000Y-97500000D02*
X159880000Y-97500000D01*
X161120000Y-96200000D02*
X159880000Y-96200000D01*
X161120000Y-94080000D02*
X158300000Y-94080000D01*
X157700000Y-94080000D02*
X150380000Y-94080000D01*
X156120000Y-98500000D02*
X154812000Y-98500000D01*
X156120000Y-97500000D02*
X154812000Y-97500000D01*
X156120000Y-96200000D02*
X153543000Y-96200000D01*
X154444000Y-96796000D02*
X154487000Y-96753000D01*
X154205000Y-96557000D02*
X154248000Y-96514000D01*
X152457000Y-96200000D02*
X150380000Y-96200000D01*
X151753000Y-99486000D02*
X151796000Y-99443000D01*
X151513000Y-99247000D02*
X151556000Y-99204000D01*
X151188000Y-98500000D02*
X150380000Y-98500000D01*
X151188000Y-97500000D02*
X150380000Y-97500000D01*
X150380000Y-102120000D02*
X150380000Y-94080000D01*
X159880000Y-97446000D02*
G75*
G02*
X159879861Y-98554472I-1879990J-554000D01*
G01*
X158554000Y-99880000D02*
G75*
G02*
X157445528Y-99879861I-554000J1880000D01*
G01*
X157446000Y-96120000D02*
G75*
G02*
X158554472Y-96120139I554000J-1879990D01*
G01*
X156120000Y-98554000D02*
G75*
G02*
X156120139Y-97445528I1880000J554000D01*
G01*
X154960000Y-98000000D02*
G75*
G02*
X151040000Y-98000000I-1960000J0D01*
G01*
X151040000Y-98000000D02*
G75*
G02*
X154960000Y-98000000I1960000J0D01*
G01*
X158000000Y-94080000D02*
X157560000Y-93470000D01*
X158440000Y-93470000D01*
X158000000Y-94080000D01*
G36*
X158000000Y-94080000D02*
G01*
X157560000Y-93470000D01*
X158440000Y-93470000D01*
X158000000Y-94080000D01*
G37*
%TO.C,J2*%
X147195000Y-76185000D02*
X147195000Y-76060000D01*
X147108276Y-76185000D02*
X147195000Y-76185000D01*
X145805000Y-76185000D02*
X147195000Y-76185000D01*
X145805000Y-76185000D02*
X145891724Y-76185000D01*
X145805000Y-76185000D02*
X145805000Y-76060000D01*
X145805000Y-75500000D02*
X145805000Y-74815000D01*
X145805000Y-74815000D02*
X146500000Y-74815000D01*
%TO.C,GND1*%
X168805000Y-94315000D02*
X169500000Y-94315000D01*
X168805000Y-95000000D02*
X168805000Y-94315000D01*
X168805000Y-95685000D02*
X168805000Y-95560000D01*
X168805000Y-95685000D02*
X168891724Y-95685000D01*
X168805000Y-95685000D02*
X170195000Y-95685000D01*
X170108276Y-95685000D02*
X170195000Y-95685000D01*
X170195000Y-95685000D02*
X170195000Y-95560000D01*
%TO.C,D1*%
X157270000Y-90000000D02*
X156620000Y-90000000D01*
X156620000Y-91120000D02*
X156620000Y-88880000D01*
X156620000Y-88880000D02*
X152380000Y-88880000D01*
X156020000Y-91120000D02*
X156020000Y-88880000D01*
X155900000Y-91120000D02*
X155900000Y-88880000D01*
X155780000Y-91120000D02*
X155780000Y-88880000D01*
X152380000Y-91120000D02*
X156620000Y-91120000D01*
X152380000Y-88880000D02*
X152380000Y-91120000D01*
X151730000Y-90000000D02*
X152380000Y-90000000D01*
%TO.C,C1*%
X165020000Y-83000000D02*
G75*
G02*
X158480000Y-83000000I-3270000J0D01*
G01*
X158480000Y-83000000D02*
G75*
G02*
X165020000Y-83000000I3270000J0D01*
G01*
X164991000Y-82598000D02*
X164991000Y-83402000D01*
X164951000Y-82367000D02*
X164951000Y-83633000D01*
X164911000Y-82198000D02*
X164911000Y-83802000D01*
X164871000Y-82060000D02*
X164871000Y-83940000D01*
X164831000Y-81941000D02*
X164831000Y-84059000D01*
X164791000Y-81835000D02*
X164791000Y-84165000D01*
X164751000Y-81738000D02*
X164751000Y-84262000D01*
X164711000Y-81650000D02*
X164711000Y-84350000D01*
X164671000Y-81568000D02*
X164671000Y-84432000D01*
X164631000Y-81491000D02*
X164631000Y-84509000D01*
X164591000Y-81419000D02*
X164591000Y-84581000D01*
X164551000Y-81350000D02*
X164551000Y-84650000D01*
X164511000Y-81286000D02*
X164511000Y-84714000D01*
X164471000Y-81224000D02*
X164471000Y-84776000D01*
X164431000Y-81166000D02*
X164431000Y-84834000D01*
X164391000Y-81110000D02*
X164391000Y-84890000D01*
X164351000Y-81056000D02*
X164351000Y-84944000D01*
X164311000Y-81005000D02*
X164311000Y-84995000D01*
X164271000Y-80956000D02*
X164271000Y-85044000D01*
X164231000Y-80908000D02*
X164231000Y-85092000D01*
X164191000Y-80863000D02*
X164191000Y-85137000D01*
X164151000Y-80818000D02*
X164151000Y-85182000D01*
X164111000Y-80776000D02*
X164111000Y-85224000D01*
X164071000Y-80735000D02*
X164071000Y-85265000D01*
X164031000Y-84040000D02*
X164031000Y-85305000D01*
X164031000Y-80695000D02*
X164031000Y-81960000D01*
X163991000Y-84040000D02*
X163991000Y-85343000D01*
X163991000Y-80657000D02*
X163991000Y-81960000D01*
X163951000Y-84040000D02*
X163951000Y-85380000D01*
X163951000Y-80620000D02*
X163951000Y-81960000D01*
X163911000Y-84040000D02*
X163911000Y-85416000D01*
X163911000Y-80584000D02*
X163911000Y-81960000D01*
X163871000Y-84040000D02*
X163871000Y-85450000D01*
X163871000Y-80550000D02*
X163871000Y-81960000D01*
X163831000Y-84040000D02*
X163831000Y-85484000D01*
X163831000Y-80516000D02*
X163831000Y-81960000D01*
X163791000Y-84040000D02*
X163791000Y-85516000D01*
X163791000Y-80484000D02*
X163791000Y-81960000D01*
X163751000Y-84040000D02*
X163751000Y-85548000D01*
X163751000Y-80452000D02*
X163751000Y-81960000D01*
X163711000Y-84040000D02*
X163711000Y-85578000D01*
X163711000Y-80422000D02*
X163711000Y-81960000D01*
X163671000Y-84040000D02*
X163671000Y-85607000D01*
X163671000Y-80393000D02*
X163671000Y-81960000D01*
X163631000Y-84040000D02*
X163631000Y-85636000D01*
X163631000Y-80364000D02*
X163631000Y-81960000D01*
X163591000Y-84040000D02*
X163591000Y-85664000D01*
X163591000Y-80336000D02*
X163591000Y-81960000D01*
X163551000Y-84040000D02*
X163551000Y-85690000D01*
X163551000Y-80310000D02*
X163551000Y-81960000D01*
X163511000Y-84040000D02*
X163511000Y-85716000D01*
X163511000Y-80284000D02*
X163511000Y-81960000D01*
X163471000Y-84040000D02*
X163471000Y-85742000D01*
X163471000Y-80258000D02*
X163471000Y-81960000D01*
X163431000Y-84040000D02*
X163431000Y-85766000D01*
X163431000Y-80234000D02*
X163431000Y-81960000D01*
X163391000Y-84040000D02*
X163391000Y-85790000D01*
X163391000Y-80210000D02*
X163391000Y-81960000D01*
X163351000Y-84040000D02*
X163351000Y-85812000D01*
X163351000Y-80188000D02*
X163351000Y-81960000D01*
X163311000Y-84040000D02*
X163311000Y-85834000D01*
X163311000Y-80166000D02*
X163311000Y-81960000D01*
X163271000Y-84040000D02*
X163271000Y-85856000D01*
X163271000Y-80144000D02*
X163271000Y-81960000D01*
X163231000Y-84040000D02*
X163231000Y-85876000D01*
X163231000Y-80124000D02*
X163231000Y-81960000D01*
X163191000Y-84040000D02*
X163191000Y-85896000D01*
X163191000Y-80104000D02*
X163191000Y-81960000D01*
X163151000Y-84040000D02*
X163151000Y-85916000D01*
X163151000Y-80084000D02*
X163151000Y-81960000D01*
X163111000Y-84040000D02*
X163111000Y-85934000D01*
X163111000Y-80066000D02*
X163111000Y-81960000D01*
X163071000Y-84040000D02*
X163071000Y-85952000D01*
X163071000Y-80048000D02*
X163071000Y-81960000D01*
X163031000Y-84040000D02*
X163031000Y-85970000D01*
X163031000Y-80030000D02*
X163031000Y-81960000D01*
X162991000Y-84040000D02*
X162991000Y-85986000D01*
X162991000Y-80014000D02*
X162991000Y-81960000D01*
X162951000Y-84040000D02*
X162951000Y-86002000D01*
X162951000Y-79998000D02*
X162951000Y-81960000D01*
X162911000Y-84040000D02*
X162911000Y-86018000D01*
X162911000Y-79982000D02*
X162911000Y-81960000D01*
X162871000Y-84040000D02*
X162871000Y-86033000D01*
X162871000Y-79967000D02*
X162871000Y-81960000D01*
X162831000Y-84040000D02*
X162831000Y-86047000D01*
X162831000Y-79953000D02*
X162831000Y-81960000D01*
X162791000Y-84040000D02*
X162791000Y-86061000D01*
X162791000Y-79939000D02*
X162791000Y-81960000D01*
X162751000Y-84040000D02*
X162751000Y-86074000D01*
X162751000Y-79926000D02*
X162751000Y-81960000D01*
X162711000Y-84040000D02*
X162711000Y-86086000D01*
X162711000Y-79914000D02*
X162711000Y-81960000D01*
X162671000Y-84040000D02*
X162671000Y-86098000D01*
X162671000Y-79902000D02*
X162671000Y-81960000D01*
X162631000Y-84040000D02*
X162631000Y-86110000D01*
X162631000Y-79890000D02*
X162631000Y-81960000D01*
X162591000Y-84040000D02*
X162591000Y-86121000D01*
X162591000Y-79879000D02*
X162591000Y-81960000D01*
X162551000Y-84040000D02*
X162551000Y-86131000D01*
X162551000Y-79869000D02*
X162551000Y-81960000D01*
X162511000Y-84040000D02*
X162511000Y-86141000D01*
X162511000Y-79859000D02*
X162511000Y-81960000D01*
X162471000Y-84040000D02*
X162471000Y-86150000D01*
X162471000Y-79850000D02*
X162471000Y-81960000D01*
X162430000Y-84040000D02*
X162430000Y-86159000D01*
X162430000Y-79841000D02*
X162430000Y-81960000D01*
X162390000Y-84040000D02*
X162390000Y-86167000D01*
X162390000Y-79833000D02*
X162390000Y-81960000D01*
X162350000Y-84040000D02*
X162350000Y-86175000D01*
X162350000Y-79825000D02*
X162350000Y-81960000D01*
X162310000Y-84040000D02*
X162310000Y-86182000D01*
X162310000Y-79818000D02*
X162310000Y-81960000D01*
X162270000Y-84040000D02*
X162270000Y-86189000D01*
X162270000Y-79811000D02*
X162270000Y-81960000D01*
X162230000Y-84040000D02*
X162230000Y-86195000D01*
X162230000Y-79805000D02*
X162230000Y-81960000D01*
X162190000Y-84040000D02*
X162190000Y-86201000D01*
X162190000Y-79799000D02*
X162190000Y-81960000D01*
X162150000Y-84040000D02*
X162150000Y-86206000D01*
X162150000Y-79794000D02*
X162150000Y-81960000D01*
X162110000Y-84040000D02*
X162110000Y-86211000D01*
X162110000Y-79789000D02*
X162110000Y-81960000D01*
X162070000Y-84040000D02*
X162070000Y-86215000D01*
X162070000Y-79785000D02*
X162070000Y-81960000D01*
X162030000Y-84040000D02*
X162030000Y-86218000D01*
X162030000Y-79782000D02*
X162030000Y-81960000D01*
X161990000Y-84040000D02*
X161990000Y-86222000D01*
X161990000Y-79778000D02*
X161990000Y-81960000D01*
X161950000Y-79776000D02*
X161950000Y-86224000D01*
X161910000Y-79773000D02*
X161910000Y-86227000D01*
X161870000Y-79772000D02*
X161870000Y-86228000D01*
X161830000Y-79770000D02*
X161830000Y-86230000D01*
X161790000Y-79770000D02*
X161790000Y-86230000D01*
X161750000Y-79770000D02*
X161750000Y-86230000D01*
X158564759Y-80846000D02*
X158564759Y-81476000D01*
X158249759Y-81161000D02*
X158879759Y-81161000D01*
%TO.C,5V1*%
X168805000Y-82315000D02*
X169500000Y-82315000D01*
X168805000Y-83000000D02*
X168805000Y-82315000D01*
X168805000Y-83685000D02*
X168805000Y-83560000D01*
X168805000Y-83685000D02*
X168891724Y-83685000D01*
X168805000Y-83685000D02*
X170195000Y-83685000D01*
X170108276Y-83685000D02*
X170195000Y-83685000D01*
X170195000Y-83685000D02*
X170195000Y-83560000D01*
%TD*%
M02*
