M48
; DRILL file {KiCad 8.0.9-8.0.9-0~ubuntu24.04.1} date 2026-03-09T23:07:34+0530
; FORMAT={-:-/ absolute / metric / decimal}
; #@! TF.CreationDate,2026-03-09T23:07:34+05:30
; #@! TF.GenerationSoftware,Kicad,Pcbnew,8.0.9-8.0.9-0~ubuntu24.04.1
; #@! TF.FileFunction,Plated,1,2,PTH
FMAT,2
METRIC
; #@! TA.AperFunction,Plated,PTH,ComponentDrill
T1C0.500
; #@! TA.AperFunction,Plated,PTH,ComponentDrill
T2C0.750
; #@! TA.AperFunction,Plated,PTH,ComponentDrill
T3C0.800
; #@! TA.AperFunction,Plated,PTH,ComponentDrill
T4C1.300
%
G90
G05
T1
X146.5Y-75.5
X169.5Y-83.0
X169.5Y-95.0
T2
X130.73Y-94.36
X130.96Y-83.5
X132.0Y-94.36
X132.23Y-83.5
X133.27Y-94.36
X133.5Y-83.5
T3
X138.38Y-83.5
X138.69Y-93.0
X146.0Y-83.5
X146.31Y-93.0
X150.5Y-82.5
X150.69Y-90.0
X155.58Y-82.5
X158.31Y-90.0
X160.5Y-83.0
X163.0Y-83.0
T4
X153.0Y-98.0
X158.0Y-98.0
M30
